<?xml version="1.0" encoding="utf-8"?>
<!-- Generator: Adobe Illustrator 24.0.0, SVG Export Plug-In . SVG Version: 6.00 Build 0)  -->
<svg version="1.1" id="Layer_1" xmlns="http://www.w3.org/2000/svg" xmlns:xlink="http://www.w3.org/1999/xlink" x="0px" y="0px"
	 viewBox="0 0 2000 800" style="enable-background:new 0 0 2000 800;" xml:space="preserve">
<style type="text/css">
	.st0{fill:#242323;}
	.st1{fill:#EFE80F;}
</style>
<g>
	<path class="st0" d="M940.5,295.8v256.9c0,14.3-11.6,25.9-25.9,25.9h-42.4c-7.9,0-15.4-3.6-20.3-9.8L795.1,497
		c-15.2-19.3-46.3-8.5-46.3,16.1v39.7c0,14.3-11.6,25.9-25.9,25.9h-44c-14.3,0-25.9-11.6-25.9-25.9V295.8
		c0-14.3,11.6-25.9,25.9-25.9h42.4c7.9,0,15.4,3.6,20.3,9.9l62.8,79.5c13.3,16.8,40.3,7.4,40.3-14v-49.4c0-14.3,11.6-25.9,25.9-25.9
		h44C928.9,269.9,940.5,281.5,940.5,295.8z"/>
	<path class="st1" d="M1090.8,495.3l-1.4,1.7c-3,3.5-4.6,7.9-4.6,12.5v49.9c0,10.7-8.7,19.3-19.3,19.3h-58.1
		c-10.7,0-19.3-8.7-19.3-19.3V289.2c0-10.7,8.7-19.3,19.3-19.3h58.1c10.7,0,19.3,8.6,19.3,19.3v40.5c0,17.9,22.3,26.2,34,12.5
		l56.1-65.6c3.7-4.3,9-6.8,14.7-6.8h56.2c16.5,0,25.4,19.4,14.7,31.9l-79.5,92.5c-5.8,6.7-6.2,16.5-1.1,23.8l92.2,130.1
		c9.1,12.8-0.1,30.5-15.8,30.5h-66.5c-6.2,0-12.1-3-15.7-8.1l-52.8-74C1113.9,486.3,1098.9,485.7,1090.8,495.3z"/>
	<path class="st1" d="M1549.4,512.2v54.5c0,6.6-5.4,12-12,12h-218.6c-6.6,0-12-5.4-12-12V281.9c0-6.6,5.4-12,12-12H1532
		c6.6,0,12,5.4,12,12v54.5c0,6.6-5.4,12-12,12h-116.5c-6.6,0-12,5.4-12,12v12.2c0,6.6,5.4,12,12,12h99.4c6.6,0,12,5.4,12,12v51
		c0,6.6-5.4,12-12,12h-99.4c-6.6,0-12,5.4-12,12v16.6c0,6.6,5.4,12,12,12h121.9C1544,500.2,1549.4,505.5,1549.4,512.2z"/>
	<path class="st1" d="M1702.9,501L1702.9,501c-9.5,0-17.2,7.7-17.2,17.2v43.2c0,9.5-7.7,17.2-17.2,17.2h-63.9
		c-9.5,0-17.2-7.7-17.2-17.2V287.1c0-9.5,7.7-17.2,17.2-17.2h123.2c81.3,0,132.9,45,132.9,116.4c0,38.4-14.9,68.6-41.4,88.4
		c-7.3,5.4-9.2,15.5-4.2,23.2l34.8,54.2c7.4,11.5-0.9,26.5-14.5,26.5h-64c-5.9,0-11.4-3-14.5-8l-39.4-61.7
		C1714.3,504,1708.8,501,1702.9,501z M1721.5,350.2h-18.6c-9.5,0-17.2,7.7-17.2,17.2v37.9c0,9.5,7.7,17.2,17.2,17.2h18.6
		c27.1,0,40-13.7,40-36.2S1748.6,350.2,1721.5,350.2z"/>
</g>
<g>
	<circle class="st1" cx="390" cy="320.1" r="84"/>
	<path class="st1" d="M294.7,426.4v138.7c0,6.6,5.3,11.9,11.9,11.9H476c6.6,0,11.9-5.3,11.9-11.9V423.8c0-8.6-8.9-14.4-16.8-10.9
		c-23.9,10.9-52.3,17.2-82.8,17.2c-28.1,0-54.5-5.4-77.1-14.7C303.3,412.1,294.7,417.9,294.7,426.4z"/>
</g>
<g>
	<path class="st1" d="M480.4,110.8c-2.5,0-4.9,0.8-6.9,2.3c-17.5,12.7-47.8,21.1-82.2,21.1s-64.7-8.4-82.2-21.1
		c-2-1.5-4.4-2.3-6.9-2.3H158.6c-6.6,0-12,5.4-12,12v128.7c0,6.6,5.4,12,12,12h128.6c3.9,0,7.6-1.9,9.9-5.2c19.8-29,53.1-48,90.8-48
		c37.4,0,70.4,18.6,90.2,47.1c2.2,3.2,5.9,5.1,9.8,5.1h129.3c6.6,0,12-5.4,12-12V122.7c0-6.6-5.4-12-12-12L480.4,110.8L480.4,110.8z
		"/>
</g>
</svg>
