<?xml version="1.0" encoding="utf-8"?>
<!-- Generator: Adobe Illustrator 24.0.0, SVG Export Plug-In . SVG Version: 6.00 Build 0)  -->
<svg version="1.1" id="Layer_1" xmlns="http://www.w3.org/2000/svg" xmlns:xlink="http://www.w3.org/1999/xlink" x="0px" y="0px"
	 viewBox="0 0 2000 800" style="enable-background:new 0 0 2000 800;" xml:space="preserve">
<style type="text/css">
	.st0{fill:#EFE80F;}
</style>
<g>
	<g>
		<circle class="st0" cx="975.49" cy="398.52" r="114.74"/>
		<path class="st0" d="M845.22,543.68v189.43c0,8.99,7.29,16.28,16.28,16.28h231.41c8.99,0,16.28-7.29,16.28-16.28V540.14
			c0-11.82-12.2-19.73-22.96-14.84c-32.68,14.84-71.49,23.43-113.12,23.43c-38.39,0-74.38-7.31-105.38-20.09
			C857.01,524.23,845.22,532.07,845.22,543.68z"/>
	</g>
	<g>
		<path class="st0" d="M1098.92,112.54c-3.39,0-6.66,1.14-9.4,3.13c-23.98,17.39-65.32,28.87-112.3,28.87
			c-46.98,0-88.33-11.48-112.3-28.87c-2.74-1.99-6.01-3.13-9.4-3.13H659.37c-9.05,0-16.39,7.34-16.39,16.39v175.75
			c0,9.05,7.34,16.39,16.39,16.39h175.67c5.37,0,10.43-2.61,13.46-7.05c27.04-39.59,72.52-65.58,124.08-65.58
			c51.02,0,96.09,25.45,123.23,64.35c3.04,4.36,8.05,6.91,13.36,6.91h176.62c9.05,0,16.39-7.34,16.39-16.39V128.93
			c0-9.05-7.34-16.39-16.39-16.39H1098.92z"/>
	</g>
</g>
</svg>
