<?xml version="1.0" encoding="utf-8"?>
<!-- Generator: Adobe Illustrator 24.0.0, SVG Export Plug-In . SVG Version: 6.00 Build 0)  -->
<svg version="1.1" id="Layer_1" xmlns="http://www.w3.org/2000/svg" xmlns:xlink="http://www.w3.org/1999/xlink" x="0px" y="0px"
	 viewBox="0 0 2000 800" style="enable-background:new 0 0 2000 800;" xml:space="preserve">
<style type="text/css">
	.st0{fill:#FCFCF7;}
	.st1{fill:#EFE80F;}
</style>
<g>
	<path class="st0" d="M940.53,295.83v256.92c0,14.32-11.61,25.93-25.93,25.93h-42.36c-7.93,0-15.43-3.63-20.34-9.85l-56.8-71.87
		c-15.24-19.29-46.27-8.51-46.27,16.08v39.72c0,14.32-11.61,25.93-25.93,25.93h-44c-14.32,0-25.93-11.61-25.93-25.93V295.83
		c0-14.32,11.61-25.93,25.93-25.93h42.36c7.93,0,15.43,3.63,20.34,9.85l62.81,79.48c13.26,16.78,40.26,7.4,40.26-13.99v-49.42
		c0-14.32,11.61-25.93,25.93-25.93h44C928.92,269.9,940.53,281.51,940.53,295.83z"/>
	<path class="st1" d="M1090.75,495.26l-1.45,1.7c-2.96,3.49-4.59,7.92-4.59,12.5v49.91c0,10.67-8.65,19.31-19.31,19.31h-58.06
		c-10.67,0-19.31-8.65-19.31-19.31V289.21c0-10.67,8.65-19.31,19.31-19.31h58.06c10.67,0,19.31,8.65,19.31,19.31v40.45
		c0,17.94,22.33,26.18,33.99,12.55l56.08-65.56c3.67-4.29,9.03-6.76,14.67-6.76h56.17c16.51,0,25.41,19.37,14.65,31.89l-79.47,92.53
		c-5.77,6.72-6.23,16.52-1.11,23.75l92.21,130.14c9.06,12.79-0.08,30.48-15.76,30.48h-66.47c-6.24,0-12.1-3.02-15.73-8.1
		l-52.76-74.03C1113.9,486.3,1098.9,485.66,1090.75,495.26z"/>
	<path class="st1" d="M1549.4,512.15v54.54c0,6.62-5.37,11.99-11.99,11.99h-218.57c-6.62,0-11.99-5.37-11.99-11.99V281.89
		c0-6.62,5.37-11.99,11.99-11.99h213.15c6.62,0,11.99,5.37,11.99,11.99v54.54c0,6.62-5.37,11.99-11.99,11.99h-116.47
		c-6.62,0-11.99,5.37-11.99,11.99v12.2c0,6.62,5.37,11.99,11.99,11.99h99.38c6.62,0,11.99,5.37,11.99,11.99v51.01
		c0,6.62-5.37,11.99-11.99,11.99h-99.38c-6.62,0-11.99,5.37-11.99,11.99v16.61c0,6.62,5.37,11.99,11.99,11.99h121.89
		C1544.03,500.16,1549.4,505.53,1549.4,512.15z"/>
	<path class="st1" d="M1702.9,501.04L1702.9,501.04c-9.52,0-17.23,7.71-17.23,17.23v43.17c0,9.52-7.71,17.23-17.23,17.23h-63.89
		c-9.52,0-17.23-7.71-17.23-17.23V287.13c0-9.52,7.71-17.23,17.23-17.23h123.21c81.27,0,132.94,44.99,132.94,116.45
		c0,38.42-14.88,68.65-41.43,88.4c-7.28,5.42-9.15,15.53-4.24,23.16l34.85,54.21c7.37,11.47-0.86,26.55-14.49,26.55h-64.01
		c-5.88,0-11.36-3-14.52-7.96L1717.42,509C1714.26,504.04,1708.78,501.04,1702.9,501.04z M1721.51,350.18h-18.61
		c-9.52,0-17.23,7.71-17.23,17.23v37.88c0,9.52,7.71,17.23,17.23,17.23h18.61c27.09,0,40.01-13.67,40.01-36.17
		S1748.6,350.18,1721.51,350.18z"/>
</g>
<g>
	<circle class="st1" cx="390.04" cy="320.12" r="84"/>
	<path class="st1" d="M294.67,426.39v138.69c0,6.58,5.34,11.92,11.92,11.92h169.42c6.58,0,11.92-5.34,11.92-11.92V423.8
		c0-8.65-8.93-14.44-16.81-10.87c-23.93,10.86-52.34,17.16-82.81,17.16c-28.11,0-54.46-5.36-77.15-14.71
		C303.3,412.14,294.67,417.89,294.67,426.39z"/>
</g>
<g>
	<path class="st1" d="M480.41,110.75c-2.48,0-4.87,0.83-6.88,2.29c-17.55,12.73-47.82,21.14-82.22,21.14s-64.67-8.41-82.22-21.14
		c-2.01-1.46-4.4-2.29-6.88-2.29H158.6c-6.63,0-12,5.37-12,12v128.67c0,6.63,5.37,12,12,12h128.61c3.93,0,7.63-1.91,9.85-5.16
		c19.79-28.99,53.1-48.01,90.84-48.01c37.35,0,70.35,18.63,90.22,47.11c2.23,3.19,5.89,5.06,9.78,5.06h129.31c6.63,0,12-5.37,12-12
		V122.74c0-6.63-5.37-12-12-12H480.41z"/>
</g>
</svg>
