<?xml version="1.0" encoding="utf-8"?>
<!-- Generator: Adobe Illustrator 24.0.0, SVG Export Plug-In . SVG Version: 6.00 Build 0)  -->
<svg version="1.1" id="Layer_1" xmlns="http://www.w3.org/2000/svg" xmlns:xlink="http://www.w3.org/1999/xlink" x="0px" y="0px"
	 viewBox="0 0 2000 800" style="enable-background:new 0 0 2000 800;" xml:space="preserve">
<style type="text/css">
	.st0{fill:url(#SVGID_1_);}
	.st1{fill:#EFE80F;}
</style>
<linearGradient id="SVGID_1_" gradientUnits="userSpaceOnUse" x1="629.3893" y1="738.3692" x2="1344.1642" y2="110.7484">
	<stop  offset="0" style="stop-color:#343434"/>
	<stop  offset="0.1642" style="stop-color:#222222"/>
	<stop  offset="0.3434" style="stop-color:#161616"/>
	<stop  offset="0.5302" style="stop-color:#131313"/>
</linearGradient>
<path class="st0" d="M1266.7,793.14H731.39c-61.69,0-111.69-50.01-111.69-111.69V146.13c0-61.69,50.01-111.69,111.69-111.69h535.31
	c61.69,0,111.69,50.01,111.69,111.69v535.31C1378.39,743.13,1328.38,793.14,1266.7,793.14z"/>
<g>
	<g>
		<circle class="st1" cx="1001.08" cy="391.07" r="80.34"/>
		<path class="st1" d="M909.87,492.71v132.64c0,6.3,5.1,11.4,11.4,11.4h162.04c6.3,0,11.4-5.1,11.4-11.4V490.24
			c0-8.27-8.54-13.81-16.08-10.39c-22.89,10.39-50.06,16.41-79.21,16.41c-26.88,0-52.08-5.12-73.79-14.07
			C918.12,479.09,909.87,484.58,909.87,492.71z"/>
	</g>
	<g>
		<path class="st1" d="M1087.51,190.83c-2.37,0-4.66,0.8-6.58,2.19c-16.79,12.18-45.74,20.22-78.64,20.22
			c-32.9,0-61.85-8.04-78.64-20.22c-1.92-1.39-4.21-2.19-6.58-2.19H779.73c-6.34,0-11.47,5.14-11.47,11.47v123.06
			c0,6.34,5.14,11.47,11.47,11.47h123.01c3.76,0,7.3-1.83,9.42-4.93c18.93-27.72,50.78-45.92,86.89-45.92
			c35.73,0,67.29,17.82,86.28,45.06c2.13,3.05,5.64,4.84,9.36,4.84h123.67c6.34,0,11.47-5.14,11.47-11.47V202.3
			c0-6.34-5.14-11.47-11.47-11.47H1087.51z"/>
	</g>
</g>
</svg>
